#N canvas 354 200 744 924 10;
#X obj 183 607 led-gpio23_new;
#X obj 213 80 adc~;
#X obj 205 140 env~;
#X floatatom 215 185 5 0 0 0 - - -, f 5;
#X obj 220 234 > 60;
#X floatatom 174 296 5 0 0 0 - - -, f 5;
#X obj 371 157 loadbang;
#X msg 370 223 0, f 4;
#X obj 386 532 delay 1;
#X msg 366 578 1;
#X obj 490 488 delay 6000;
#X msg 496 530 0;
#X obj 232 369 expr if($f1 == 1 && $f2 == 0 \, 1 \, 0);
#X obj 235 470 bng 15 250 50 0 empty empty empty 17 7 0 10 -262144
-1 -1;
#X obj 178 427 sel 1 0;
#X obj 336 310 nbx 5 14 -1e+37 1e+37 0 0 empty empty empty 0 -8 0 10
-262144 -1 -1 0 256;
#X obj 261 273 sel 1 0;
#X obj 95 90 key;
#X floatatom 90 131 5 0 0 0 - - -, f 5;
#X obj 44 211 sel 49 50 51 52;
#X connect 1 0 2 0;
#X connect 2 0 3 0;
#X connect 3 0 4 0;
#X connect 4 0 5 0;
#X connect 4 0 16 0;
#X connect 5 0 12 0;
#X connect 6 0 7 0;
#X connect 7 0 15 0;
#X connect 8 0 9 0;
#X connect 9 0 15 0;
#X connect 10 0 11 0;
#X connect 11 0 15 0;
#X connect 12 0 14 0;
#X connect 13 0 0 0;
#X connect 13 0 8 0;
#X connect 13 0 10 0;
#X connect 14 0 13 0;
#X connect 15 0 12 1;
#X connect 16 0 15 0;
#X connect 17 0 18 0;
#X connect 18 0 19 0;
