#N canvas 350 275 468 478 10;
#X floatatom 105 202 5 0 0 0 - - -, f 5;
#X obj 61 234 tgl 15 0 empty empty empty 17 7 0 10 -262144 -1 -1 0
1;
#X floatatom 61 267 5 0 0 0 - - -, f 5;
#X obj 53 35 inlet;
#X obj 63 295 wiringPi_gpio 4 0 0;
#X obj 64 93 bng 15 250 50 0 empty empty empty 17 7 0 10 -262144 -1
-1;
#X obj 125 160 delay 6000;
#X connect 0 0 1 0;
#X connect 1 0 2 0;
#X connect 2 0 4 0;
#X connect 3 0 5 0;
#X connect 5 0 1 0;
#X connect 5 0 6 0;
#X connect 6 0 0 0;
