#N canvas 348 505 792 401 10;
#X floatatom 94 137 5 0 0 0 - - -, f 5;
#X obj 50 169 tgl 15 0 empty empty empty 17 7 0 10 -262144 -1 -1 0
1;
#X floatatom 50 202 5 0 0 0 - - -, f 5;
#X obj 53 35 inlet;
#X obj 40 260 wiringPi_gpio 4 0 0;
#X obj 114 96 delay 6000;
#X obj 274 69 wiringPi_mcp3008 0 8;
#X msg 334 18 setup_wiringPi;
#X obj 253 5 tgl 15 0 empty empty empty 17 7 0 10 -262144 -1 -1 1 1
;
#X obj 252 26 metro 5;
#X obj 262 124 unpack f f f f f f f f;
#X floatatom 240 165 5 0 0 0 - - -, f 5;
#X floatatom 336 164 5 0 0 0 - - -, f 5;
#X floatatom 279 165 5 0 0 0 - - -, f 5;
#X connect 0 0 1 0;
#X connect 1 0 2 0;
#X connect 2 0 4 0;
#X connect 3 0 1 0;
#X connect 3 0 5 0;
#X connect 5 0 0 0;
#X connect 6 0 10 0;
#X connect 7 0 6 0;
#X connect 8 0 9 0;
#X connect 9 0 6 0;
#X connect 10 0 11 0;
#X connect 10 1 13 0;
#X connect 10 2 12 0;
